<svg width="229" height="208" viewBox="0 0 229 208" fill="none" xmlns="http://www.w3.org/2000/svg">
<g filter="url(#filter0_i_7691_35)">
<path d="M102.699 0.162801C137.428 -2.04482 173.261 18.1609 191.696 63.1374C192.573 65.2763 194.507 67.0433 196.943 67.8728H196.944C216.145 74.406 227.153 88.9684 228.391 104.506C229.632 120.093 220.95 135.674 202.938 143.863C199.969 145.213 197.859 147.94 197.37 151.024C195.041 165.736 188.197 177.919 176.999 185.222C165.796 192.529 150.94 194.494 133.492 190.186C130.936 189.555 128.177 190.191 126.144 191.882C105.621 208.945 83.6872 211.453 66.0342 203.274C48.5571 195.177 36.1773 177.012 33.6729 154.534C33.3192 151.362 31.2677 148.562 28.3467 147.266C10.5399 139.371 1.03202 126.264 0.0791338 111.91C-0.863148 97.7133 6.6525 83.4999 20.3369 73.3913C21.8971 72.2387 23.0296 70.6362 23.5215 68.9099C35.5194 26.7987 68.0809 2.36347 102.699 0.162801ZM116.652 67.3757C108.948 66.7201 101.753 77.3412 100.582 91.0983C99.4109 104.856 104.707 116.54 112.411 117.196C120.115 117.852 127.31 107.231 128.481 93.4733C129.653 79.716 124.356 68.0316 116.652 67.3757ZM70.0225 90.8396C68.2031 78.5545 62.0375 69.2903 56.252 70.1472C50.4667 71.0045 47.252 81.6575 49.0713 93.9421C50.8907 106.227 57.0554 115.491 62.8409 114.634C68.6264 113.778 71.8419 103.125 70.0225 90.8396Z" fill="#FF4401"/>
</g>
<defs>
<filter id="filter0_i_7691_35" x="0" y="0" width="228.508" height="211.773" filterUnits="userSpaceOnUse" color-interpolation-filters="sRGB">
<feFlood flood-opacity="0" result="BackgroundImageFix"/>
<feBlend mode="normal" in="SourceGraphic" in2="BackgroundImageFix" result="shape"/>
<feColorMatrix in="SourceAlpha" type="matrix" values="0 0 0 0 0 0 0 0 0 0 0 0 0 0 0 0 0 0 127 0" result="hardAlpha"/>
<feOffset dy="4"/>
<feGaussianBlur stdDeviation="2"/>
<feComposite in2="hardAlpha" operator="arithmetic" k2="-1" k3="1"/>
<feColorMatrix type="matrix" values="0 0 0 0 1 0 0 0 0 0.452157 0 0 0 0 0.00392157 0 0 0 1 0"/>
<feBlend mode="normal" in2="shape" result="effect1_innerShadow_7691_35"/>
</filter>
</defs>
</svg>
